<?xml version="1.0" encoding="UTF-8"?>
<svg width="510px" height="102px" viewBox="0 0 510 102" version="1.1" xmlns="http://www.w3.org/2000/svg" xmlns:xlink="http://www.w3.org/1999/xlink">
    <!-- Generator: Sketch 62 (91390) - https://sketch.com -->
    <title>Artboard</title>
    <desc>Created with Sketch.</desc>
    <g id="Artboard" stroke="none" stroke-width="1" fill="none" fill-rule="evenodd">
        <g id="Logo-(1)" fill="#fff" fill-rule="nonzero">
            <path d="M110.3,21.1 C110.5,31.4 100.1,29.5 98.2,24.9 C95.7,18.6 94,14.6 91.7,11.7 C90.4,10.1 88.9,8.7 87.4,7.5 C85.7,6.2 83.6,5 81,3.6 C71.5,-1.2 55.8,0.2 46.1,11 C46,11.1 45.9,11.3 45.8,11.4 C45.5,11.7 45.3,12 45.1,12.3 C44.9,12.6 44.7,12.9 44.4,13.2 C44.3,13.4 44.2,13.5 44.1,13.7 C37.2,23.5 37.1,38 42.9,46.2 C47.7,53 50.1,55.8 59,59.8 C59.5,60 61.8,61.4 62.6,63.8 C63.2,65.7 62.5,67.4 62.2,68.2 C61.4,70.2 59.3,71 57.8,71.4 C56.6,71.7 55,71.7 53.8,71.2 C37.8,64.9 26.7,50.1 25.7,33.2 C25.4,29.1 25.8,25 26.7,21 C11.7,22.9 0.1,35.6 0.1,51 C0.1,66.6 12,79.4 27.2,80.9 C27.1,70.7 37.5,72.7 39.3,77.2 C44.5,90.4 46.4,93.3 56.6,98.5 C66.8,103.7 84.2,101.7 93.5,88.5 C100.4,78.7 100.5,64.2 94.7,56 C89.9,49.2 87.5,46.4 78.6,42.4 C78.1,42.2 75.8,40.8 75,38.4 C74.4,36.5 75.1,34.8 75.4,34 C76.2,32 78.3,31.2 79.8,30.8 C81,30.5 82.6,30.5 83.8,31 C94.2,35.1 102.5,42.7 107.3,52.2 C110.1,57.9 111.7,64.4 111.7,71.2 C111.7,74.6 111.3,77.9 110.6,81 C125.5,79.2 137,66.5 137,51.1 C136.9,35.6 125.3,22.8 110.3,21.1 Z" id="Path"></path>
            <path d="M197.396021,86.1405412 C204.824721,86.1405412 211.344591,84.4809379 216.955631,81.1617313 C222.56667,77.8425248 225.37219,72.3263196 225.37219,64.6131159 C225.37219,58.4172637 223.159386,53.6913458 218.733777,50.4353622 C216.173246,48.5702842 212.537925,47.1003499 207.827813,46.0255592 L207.827813,46.0255592 L198.059862,43.7969491 C191.484672,42.2795976 187.264538,41.0151379 185.39946,40.0035702 C182.554426,38.4229957 181.131909,35.9256879 181.131909,32.5116469 C181.131909,29.4137208 182.348951,26.6951326 184.783036,24.3558822 C187.217121,22.0166319 191.215974,20.8470067 196.779597,20.8470067 C203.670902,20.8470067 208.554877,22.6646675 211.431523,26.2999889 C212.980486,28.2915128 213.992053,31.1523528 214.466226,34.8825087 L214.466226,34.8825087 L223.333249,34.8825087 C223.333249,27.1376934 220.780621,21.5029452 215.675365,17.9782639 C210.57011,14.4535827 204.366354,12.6912421 197.0641,12.6912421 C189.129616,12.6912421 182.996987,14.6985718 178.666212,18.7132311 C174.335438,22.7278904 172.170051,27.8647577 172.170051,34.1238329 C172.170051,39.9087357 174.382855,44.2553157 178.808464,47.1635729 C181.368995,48.8389819 185.731381,50.3721392 191.895621,51.7630448 L191.895621,51.7630448 L201.331651,53.8968205 C206.452713,55.0664456 210.21448,56.4415455 212.616954,58.02212 C214.987815,59.6343061 216.173246,62.3370885 216.173246,66.1304674 C216.173246,71.188306 213.359824,74.6971815 207.732978,76.6570939 C204.824721,77.6686616 201.600349,78.1744455 198.059862,78.1744455 C190.156989,78.1744455 184.640784,75.8668066 181.511247,71.251529 C179.867449,68.7858327 178.93491,65.5772663 178.71363,61.62583 L178.71363,61.62583 L169.846606,61.62583 C169.751772,69.1493648 172.154245,75.1081308 177.054026,79.5021281 C181.953807,83.9277368 188.734472,86.1405412 197.396021,86.1405412 Z M244.860674,24.118796 L244.860674,14.4456798 L236.18332,14.4456798 L236.18332,24.118796 L244.860674,24.118796 Z M244.860674,84.1016 L244.860674,33.5548261 L236.18332,33.5548261 L236.18332,84.1016 L244.860674,84.1016 Z M266.293265,84.1016 L266.293265,57.1686098 C266.293265,50.6250312 267.613045,46.104588 270.252604,43.6072802 C272.892164,41.1099724 275.82413,39.8613185 279.048502,39.8613185 C282.588989,39.8613185 285.007268,41.0467494 286.303339,43.4176112 C287.125238,44.9981858 287.536187,47.5112993 287.536187,50.9569518 L287.536187,50.9569518 L287.536187,84.1016 L296.213541,84.1016 L296.213541,54.5606618 C296.213541,49.3131543 297.422681,45.5671926 299.84096,43.3227768 C302.259239,41.0783609 305.143787,39.956153 308.494605,39.956153 C310.92869,39.956153 312.99134,40.5883828 314.682555,41.8528424 C316.37377,43.1173021 317.219377,45.4407466 317.219377,48.8231762 L317.219377,48.8231762 L317.219377,84.1016 L326.0864,84.1016 L326.0864,50.2931105 C326.0864,45.8042788 325.422559,42.2321803 324.094876,39.5768151 C321.62918,34.6454225 316.982291,32.1797262 310.154209,32.1797262 C306.961448,32.1797262 304.084802,32.8356647 301.524272,34.1475415 C298.963741,35.4594184 296.735131,37.4746509 294.838441,40.1932392 C293.700428,37.9804348 292.435968,36.3050258 291.045062,35.1670121 C288.579366,33.1754882 285.323383,32.1797262 281.277112,32.1797262 C277.705013,32.1797262 274.512253,33.1438767 271.69883,35.0721776 C270.055033,36.2101913 268.221566,38.027852 266.198431,40.5251598 L266.198431,40.5251598 L266.198431,33.3177399 L257.758163,33.3177399 L257.758163,84.1016 L266.293265,84.1016 Z M347.424156,84.1016 L347.424156,14.4456798 L338.889054,14.4456798 L338.889054,84.1016 L347.424156,84.1016 Z M379.573043,85.9508722 C387.950088,85.9508722 394.130134,83.2797012 398.113182,77.9373593 C402.09623,72.5950173 404.087754,65.8301583 404.087754,57.6427821 C404.087754,49.1709026 401.827532,42.7537699 397.307089,38.3913842 C392.786646,34.0289984 387.254635,31.8478056 380.711056,31.8478056 C373.408802,31.8478056 367.592288,34.3767248 363.261513,39.4345634 C358.930739,44.4924019 356.765352,51.2888725 356.765352,59.823975 C356.765352,67.7900707 358.820099,74.1360775 362.929593,78.8619954 C367.039087,83.5879133 372.586903,85.9508722 379.573043,85.9508722 Z M380.379136,78.6012006 C375.226463,78.6012006 371.464695,76.7993456 369.093833,73.1956356 C366.722972,69.5919257 365.537541,65.0872882 365.537541,59.6817233 C365.537541,54.0548779 366.722972,49.2499313 369.093833,45.2668834 C371.464695,41.2838356 375.258074,39.2923117 380.47397,39.2923117 C386.353707,39.2923117 390.494813,41.631562 392.897286,46.3100626 C394.414638,49.2815428 395.173313,53.1381447 395.173313,57.8798683 C395.173313,63.1273758 394.122231,67.892808 392.020067,72.1761651 C389.917903,76.4595221 386.037593,78.6012006 380.379136,78.6012006 Z M430.973327,85.4766999 C435.620216,85.4766999 439.571652,84.1490172 442.827636,81.493652 C444.471433,80.1659694 445.846533,78.5379776 446.952935,76.6096767 L446.952935,76.6096767 L446.858101,84.1016 L454.919031,84.1016 L454.919031,33.3177399 L446.383929,33.3177399 L446.383929,58.2592062 C446.383929,63.2222103 445.799116,67.1262294 444.629491,69.9712636 C442.47991,75.281994 438.433639,77.9373593 432.490678,77.9373593 C428.349573,77.9373593 425.520345,76.4200077 424.002993,73.3853046 C423.181094,71.7415071 422.770145,69.6235372 422.770145,67.0313949 L422.770145,67.0313949 L422.770145,33.3177399 L414.045373,33.3177399 L414.045373,67.8374879 C414.045373,72.1682622 414.756632,75.6297204 416.179149,78.2218627 C418.802903,83.0584208 423.734295,85.4766999 430.973327,85.4766999 Z M485.550566,85.903455 C489.059441,85.903455 492.173173,85.2080022 494.891761,83.8170966 C497.61035,82.426191 499.965406,80.1659694 501.95693,77.0364318 L501.95693,77.0364318 L501.95693,84.1016 L509.638522,84.1016 L509.638522,14.2085937 L501.43534,14.2085937 L501.43534,39.8613185 C499.507039,37.4904567 497.784213,35.8308534 496.266861,34.8825087 C493.643108,33.2387112 490.387124,32.4168124 486.498911,32.4168124 C479.48116,32.4168124 474.083498,35.1274977 470.305924,40.5488684 C466.528351,45.9702391 464.639565,52.3794689 464.639565,59.7765578 C464.639565,67.6794305 466.710117,74.0096315 470.851223,78.7671609 C474.992328,83.5246903 479.892109,85.903455 485.550566,85.903455 Z M488.205931,78.4589489 C483.116481,78.4589489 479.417937,76.6254824 477.110298,72.9585495 C474.802659,69.2916165 473.64884,64.7395618 473.64884,59.3023854 C473.64884,52.9168642 474.984425,48.0803061 477.655596,44.7927111 C480.326767,41.505116 483.811934,39.8613185 488.111097,39.8613185 C491.967699,39.8613185 495.207876,41.4023787 497.83163,44.484499 C500.455384,47.5666194 501.767261,52.3162459 501.767261,58.7333786 C501.767261,65.0872882 500.494898,69.9633607 497.950173,73.361596 C495.405448,76.7598312 492.157367,78.4589489 488.205931,78.4589489 Z" id="Simloud"></path>
        </g>
    </g>
</svg>